<svg width="436" height="349" viewBox="0 0 436 349" fill="none" xmlns="http://www.w3.org/2000/svg">
<g clip-path="url(#clip0_15_102)">
<path d="M173.952 162.654C169.532 166.818 163.8 167.914 161.149 165.101C158.499 162.289 159.934 156.633 164.355 152.469C166.29 150.647 168.476 149.412 170.545 148.836L189.498 131.427L197.48 140.493L177.949 156.692C177.25 158.723 175.887 160.832 173.952 162.654Z" fill="#FFB6B6"/>
<path d="M273.661 341.806L264.525 341.805L260.179 306.572L273.663 306.572L273.661 341.806Z" fill="#FFB6B6"/>
<path d="M242.359 341.599C242.074 342.078 241.924 343.624 241.924 344.181C241.924 345.893 243.313 347.281 245.025 347.281H273.32C274.488 347.281 275.435 346.334 275.435 345.166V343.988C275.435 343.988 276.835 340.449 273.953 336.086C273.953 336.086 270.371 339.502 265.019 334.151L263.441 331.293L252.017 339.646L245.685 340.425C244.3 340.596 243.071 340.399 242.359 341.599Z" fill="#2F2E41"/>
<path d="M337.758 336.617L328.775 338.285L318.067 304.437L331.325 301.976L337.758 336.617Z" fill="#FFB6B6"/>
<path d="M306.944 342.128C306.752 342.651 306.887 344.199 306.988 344.746C307.301 346.43 308.92 347.541 310.603 347.228L338.422 342.063C339.571 341.849 340.329 340.746 340.116 339.597L339.901 338.439C339.901 338.439 340.63 334.703 337 330.94C337 330.94 334.103 334.953 327.864 330.669L325.79 328.147L316.083 338.445L310 340.367C308.669 340.788 307.426 340.818 306.944 342.128Z" fill="#2F2E41"/>
<path d="M315.37 167.681L337.875 318.326L316.925 321.058L280.491 201.761L275.936 324.701H256.41C256.41 324.701 239.545 189.012 244.533 172.62C249.521 156.228 315.37 167.681 315.37 167.681Z" fill="#2F2E41"/>
<path d="M266.828 46.948H288.688L291.876 54.6886C291.876 54.6886 304.628 61.974 304.628 64.7059C304.628 67.4379 312.371 136.193 312.371 136.193L316.469 173.986C316.469 173.986 268.649 198.118 244.967 173.53L249.521 131.64C249.521 131.64 245.878 66.0719 247.7 63.34C249.521 60.608 263.184 54.2333 263.184 54.2333L266.828 46.948Z" fill="#891DBE"/>
<path d="M259.99 58.6956C259.99 58.6956 266.653 68.7613 264.551 72.9019C262.449 77.0426 229.643 116.781 229.643 116.781L190.061 149.37L178.46 139.076L215.742 103.518L239.831 67.9995C243.665 60.6883 251.938 56.87 259.99 58.6956Z" fill="#891DBE"/>
<path d="M335.159 189.527C336.111 195.524 333.788 200.876 329.97 201.482C326.153 202.087 322.287 197.716 321.336 191.719C320.919 189.094 321.13 186.592 321.819 184.558L318.106 159.096L330.094 157.608L332.483 182.867C333.767 184.588 334.742 186.901 335.159 189.527Z" fill="#FFB6B6"/>
<path d="M288.532 59.6913C288.532 59.6913 307.382 55.4734 310.807 65.9247C314.232 76.376 334.81 175.51 334.81 175.51L319.134 177.246L307.361 109.328L288.532 59.6913Z" fill="#891DBE"/>
<path d="M278.508 41.8786C288.888 41.8786 297.302 33.4657 297.302 23.0879C297.302 12.71 288.888 4.29712 278.508 4.29712C268.127 4.29712 259.713 12.71 259.713 23.0879C259.713 33.4657 268.127 41.8786 278.508 41.8786Z" fill="#FFB6B6"/>
<path d="M289.504 39.043C288.299 39.1016 286.708 38.872 286.506 37.6828C286.364 36.8438 287.071 36.1207 287.737 35.5909C288.666 34.8522 289.646 34.1636 290.444 33.2854C291.242 32.4072 291.856 31.2967 291.871 30.1103C291.886 28.924 291.18 27.6862 290.044 27.3409C288.909 26.9957 287.493 27.8397 287.476 29.026C286.381 27.3641 286.236 25.2702 286.178 23.2813C286.145 22.1174 286.13 20.953 286.134 19.7887C286.139 18.198 286.179 16.6077 286.22 15.0175C285.437 14.9764 279.124 17.3514 278.213 17.3514C277.43 17.3514 271.137 16.1024 271.555 14.3099C271.432 15.4555 265.428 17.5191 265.306 16.9195C265.183 16.3198 264.735 15.6869 264.124 15.7227C263.48 15.7605 263.13 16.4744 262.913 17.0822C262.43 18.4391 261.255 20.7843 259.996 20.0834C250.469 14.7787 258.151 13.1265 259.28 10.9692C260.667 8.31733 262.147 5.55837 264.616 3.86659C267.085 2.17482 269.034 0.154789 270.979 2.42961C275.858 -1.1262 280.699 -0.268487 286.386 1.75916C292.073 3.78681 296.622 8.74795 298.149 14.588C298.85 17.2649 300.725 18.4395 299.328 20.8277C300.868 22.8932 300.034 21.7246 300.338 24.283C300.578 26.3015 300.377 28.4321 299.376 30.2014C298.306 32.0914 296.413 33.4064 294.389 34.1945C292.365 34.9826 292.015 38.9408 289.866 39.2507" fill="#2F2E41"/>
<path d="M382.875 332.94C384.757 333.058 385.797 330.721 384.373 329.358L384.231 328.795C384.25 328.75 384.269 328.705 384.288 328.66C386.191 324.123 392.64 324.155 394.527 328.698C396.202 332.731 398.334 336.77 398.859 341.034C399.094 342.916 398.988 344.834 398.571 346.681C402.495 338.111 404.56 328.753 404.56 319.342C404.56 316.977 404.43 314.613 404.165 312.254C403.948 310.325 403.648 308.407 403.259 306.507C401.159 296.238 396.611 286.456 390.052 278.286C386.898 276.563 384.269 273.869 382.68 270.64C382.11 269.475 381.662 268.222 381.451 266.946C381.81 266.993 382.804 261.529 382.533 261.194C383.033 260.435 383.928 260.058 384.475 259.317C387.191 255.635 390.934 256.278 392.887 261.282C397.061 263.388 397.102 266.881 394.541 270.24C392.911 272.377 392.687 275.269 391.258 277.557C391.405 277.745 391.558 277.928 391.705 278.116C394.402 281.574 396.735 285.292 398.701 289.197C398.145 284.857 398.966 279.628 400.365 276.257C401.957 272.417 404.942 269.182 407.57 265.862C410.727 261.874 417.201 263.614 417.757 268.67C417.763 268.719 417.768 268.768 417.773 268.817C417.383 269.037 417 269.271 416.627 269.518C414.496 270.927 415.232 274.229 417.757 274.619L417.814 274.628C417.673 276.034 417.432 277.428 417.079 278.798C420.451 291.835 413.171 296.583 402.777 296.797C402.548 296.914 402.324 297.032 402.094 297.144C403.148 300.108 403.989 303.149 404.612 306.231C405.171 308.954 405.56 311.707 405.777 314.472C406.048 317.959 406.024 321.465 405.73 324.947L405.748 324.824C406.495 320.989 408.578 317.407 411.602 314.924C416.106 311.225 422.471 309.862 427.331 306.888C429.67 305.457 432.668 307.307 432.259 310.019L432.239 310.148C431.516 310.442 430.81 310.784 430.127 311.166C429.737 311.386 429.355 311.62 428.981 311.867C426.85 313.276 427.587 316.579 430.111 316.968L430.169 316.977C430.21 316.983 430.245 316.989 430.286 316.995C429.045 319.942 427.315 322.677 425.15 325.035C423.042 336.416 413.987 337.496 404.301 334.182H404.295C403.236 338.793 401.689 343.299 399.7 347.592H383.286C383.227 347.41 383.174 347.222 383.121 347.039C384.639 347.133 386.169 347.045 387.663 346.769C386.445 345.275 385.228 343.769 384.01 342.275C383.98 342.246 383.957 342.216 383.933 342.187C383.316 341.422 382.692 340.663 382.074 339.899L382.074 339.898C382.035 337.551 382.317 335.211 382.875 332.94Z" fill="#6A6A6A"/>
<path d="M0 347.916C0 348.517 0.482782 349 1.08397 349H434.916C435.517 349 436 348.517 436 347.916C436 347.315 435.517 346.833 434.916 346.833H1.08397C0.482782 346.833 0 347.315 0 347.916Z" fill="#CCCCCC"/>
<path d="M97.9073 249.384L97.7836 247.566C101.337 247.325 104.9 246.839 108.373 246.119L108.742 247.903C105.188 248.639 101.543 249.137 97.9073 249.384ZM86.9592 249.222C83.2833 248.891 79.6497 248.365 76.1597 247.658L76.5217 245.872C79.9463 246.567 83.5132 247.083 87.1229 247.408L86.9592 249.222ZM119.276 244.954L118.664 243.238C122.013 242.047 125.309 240.612 128.465 238.973L129.305 240.59C126.076 242.267 122.701 243.735 119.276 244.954ZM65.6061 244.84C62.1166 243.669 58.7146 242.272 55.495 240.685L56.3 239.052C59.4471 240.602 62.7726 241.969 66.1852 243.113L65.6061 244.84ZM46.0507 235.167C43.0433 233.105 40.167 230.807 37.5025 228.336L38.7416 227C41.3407 229.411 44.1467 231.653 47.0807 233.664L46.0507 235.167ZM138.639 234.9L137.587 233.413C140.489 231.36 143.276 229.089 145.873 226.663L147.116 227.993C144.46 230.475 141.608 232.799 138.639 234.9ZM30.0444 220.314C27.7779 217.486 25.6885 214.452 23.8348 211.299L25.4056 210.376C27.2149 213.455 29.2541 216.415 31.4658 219.176L30.0444 220.314ZM154.583 220.004L153.17 218.853C155.418 216.093 157.495 213.156 159.343 210.123L160.898 211.071C159.007 214.174 156.883 217.179 154.583 220.004ZM18.9629 201.505C17.5802 198.165 16.4047 194.678 15.4694 191.143L17.2306 190.676C18.145 194.134 19.2943 197.543 20.6459 200.808L18.9629 201.505ZM165.939 201.363L164.268 200.635C165.687 197.377 166.891 193.987 167.849 190.559L169.603 191.05C168.623 194.557 167.39 198.027 165.939 201.363ZM13.3679 180.413C12.9023 176.814 12.6643 173.144 12.6612 169.505L14.4829 169.504C14.486 173.065 14.7186 176.657 15.1745 180.18L13.3679 180.413ZM171.817 180.341L170.013 180.095C170.49 176.585 170.732 172.998 170.732 169.432L170.732 169.268H172.554L172.554 169.425C172.554 173.08 172.306 176.75 171.817 180.341ZM15.1563 158.826L13.3488 158.595C13.8109 154.977 14.5114 151.365 15.4311 147.863L17.1932 148.326C16.2935 151.752 15.6081 155.285 15.1563 158.826ZM169.991 158.608C169.504 155.085 168.768 151.566 167.806 148.148L169.559 147.655C170.545 151.152 171.297 154.753 171.796 158.359L169.991 158.608ZM20.5898 138.19L18.9051 137.496C20.2985 134.113 21.9308 130.817 23.756 127.698L25.3287 128.617C23.5452 131.664 21.9508 134.885 20.5898 138.19ZM164.206 138.087C162.785 134.837 161.123 131.651 159.267 128.618L160.821 127.667C162.721 130.771 164.421 134.032 165.876 137.357L164.206 138.087ZM153.083 119.905C150.834 117.155 148.374 114.531 145.772 112.108L147.014 110.775C149.676 113.255 152.193 115.938 154.493 118.753L153.083 119.905ZM31.3689 119.81L29.9448 118.674C32.2206 115.822 34.7219 113.12 37.3784 110.643L38.6211 111.976C36.029 114.391 33.5891 117.027 31.3689 119.81ZM137.472 105.371C134.561 103.321 131.486 101.454 128.332 99.8227L129.169 98.205C132.397 99.8742 135.543 101.784 138.521 103.882L137.472 105.371ZM46.9447 105.293L45.911 103.793C48.8869 101.744 52.0602 99.8805 55.343 98.2534L56.1524 99.8853C52.9466 101.474 49.8489 103.293 46.9447 105.293ZM66.0286 95.8029L65.446 94.0772C68.8288 92.9362 72.3779 91.9815 75.9947 91.2407L76.3603 93.0247C72.8169 93.7508 69.3407 94.6855 66.0286 95.8029ZM118.518 95.5744C115.167 94.3893 111.7 93.4267 108.213 92.7116L108.578 90.9277C112.147 91.6591 115.696 92.6445 119.126 93.8571L118.518 95.5744ZM86.9579 91.4715L86.7915 89.6582C88.615 89.491 90.4897 89.3687 92.3634 89.2949C94.1362 89.274 95.9735 89.3527 97.7392 89.4687L97.62 91.2865C95.8934 91.1727 94.1371 91.1153 92.3994 91.1153C90.5928 91.1873 88.7502 91.3079 86.9579 91.4715Z" fill="#3F3D56"/>
<path d="M31.7655 243.945C45.3479 243.945 56.3586 232.937 56.3586 219.357C56.3586 205.777 45.3479 194.769 31.7655 194.769C18.1831 194.769 7.17236 205.777 7.17236 219.357C7.17236 232.937 18.1831 243.945 31.7655 243.945Z" fill="#891DBE"/>
<path d="M104.39 115.213C117.973 115.213 128.983 104.204 128.983 90.6248C128.983 77.0453 117.973 66.0369 104.39 66.0369C90.8078 66.0369 79.7971 77.0453 79.7971 90.6248C79.7971 104.204 90.8078 115.213 104.39 115.213Z" fill="#891DBE"/>
<path fill-rule="evenodd" clip-rule="evenodd" d="M104.704 86.1704C106.05 84.3513 107.537 82.9192 109.439 82.9192C113.03 82.9192 115.988 87.4895 115.989 92.9309C115.989 96.2503 114.56 98.3303 111.992 98.3303C109.755 98.3303 108.52 97.0751 106.303 93.3672L105.336 91.7394L105.165 91.4539C104.913 91.0278 104.657 90.604 104.397 90.1827L102.689 93.1976C100.263 97.4374 98.8976 98.3303 97.0013 98.3303C94.3655 98.3303 92.791 96.2793 92.791 93.0266C92.791 87.8301 95.6834 82.9192 99.4573 82.9192C99.9197 82.9192 100.363 82.9757 100.797 83.096C101.246 83.2207 101.683 83.4149 102.121 83.686C102.957 84.2063 103.794 85.0123 104.704 86.1704ZM106.902 89.3941C106.537 88.7998 106.186 88.2534 105.848 87.7518L105.839 87.7402C107.064 85.8486 108.076 84.9079 109.278 84.9079C111.776 84.9079 113.776 88.5853 113.776 93.102C113.776 94.824 113.21 95.8227 112.043 95.8227C110.922 95.8227 110.387 95.0834 108.259 91.6626L106.901 89.3941H106.902ZM99.8168 85.4645C100.868 85.6095 101.825 86.3835 103.209 88.365C102.41 89.588 101.62 90.8168 100.839 92.0511C98.8715 95.1327 98.1916 95.8241 97.0969 95.8241C95.9704 95.8241 95.2992 94.8356 95.2992 93.0701C95.2992 89.2985 97.181 85.4399 99.4253 85.4399C99.5573 85.4399 99.6878 85.4486 99.8168 85.466V85.4645Z" fill="white"/>
<path d="M25.2487 154.105C38.8311 154.105 49.8418 143.096 49.8418 129.517C49.8418 115.937 38.8311 104.929 25.2487 104.929C11.6662 104.929 0.655518 115.937 0.655518 129.517C0.655518 143.096 11.6662 154.105 25.2487 154.105Z" fill="#891DBE"/>
<path d="M27.7077 227.347C35.766 227.347 40.1741 220.671 40.1741 214.893C40.1741 214.706 40.1741 214.516 40.1661 214.329C41.0243 213.708 41.765 212.939 42.3535 212.058C41.5518 212.412 40.7023 212.645 39.8325 212.75C40.7487 212.202 41.4349 211.341 41.7636 210.325C40.9028 210.835 39.9606 211.193 38.9783 211.383C37.3204 209.618 34.545 209.531 32.7794 211.188C31.6392 212.259 31.1555 213.855 31.5099 215.378C27.987 215.202 24.7046 213.539 22.4787 210.803C21.3192 212.805 21.9136 215.364 23.8373 216.65C23.1427 216.626 22.4634 216.44 21.8541 216.105V216.165C21.8566 218.249 23.3246 220.044 25.3668 220.459C24.9908 220.563 24.6024 220.614 24.2124 220.613C23.9374 220.614 23.663 220.588 23.3929 220.537C23.9669 222.32 25.6122 223.542 27.4861 223.575C25.9334 224.794 24.0154 225.455 22.041 225.452C21.6931 225.454 21.3454 225.434 21 225.392C23.0039 226.669 25.3312 227.348 27.7077 227.347Z" fill="white"/>
<path d="M113.79 270.955C127.372 270.955 138.383 259.947 138.383 246.367C138.383 232.788 127.372 221.779 113.79 221.779C100.207 221.779 89.1964 232.788 89.1964 246.367C89.1964 259.947 100.207 270.955 113.79 270.955Z" fill="#891DBE"/>
<path d="M25.4889 120C22.6425 120 22.2846 120.013 21.1662 120.063C20.0478 120.115 19.286 120.291 18.6187 120.551C17.9187 120.814 17.2846 121.227 16.7608 121.76C16.2273 122.284 15.8143 122.918 15.5507 123.618C15.2911 124.284 15.1141 125.047 15.0629 126.161C15.0131 127.282 15 127.638 15 130.488C15 133.335 15.0131 133.692 15.0629 134.81C15.1154 135.927 15.2911 136.688 15.5507 137.356C15.8194 138.045 16.1774 138.63 16.7608 139.213C17.343 139.796 17.9277 140.155 18.6174 140.423C19.286 140.682 20.0465 140.859 21.1636 140.911C22.2833 140.96 22.6399 140.973 25.4889 140.973C28.338 140.973 28.6933 140.96 29.813 140.911C30.9288 140.858 31.6932 140.682 32.3605 140.423C33.0601 140.16 33.6937 139.747 34.2171 139.213C34.8005 138.63 35.1584 138.045 35.4272 137.356C35.6855 136.688 35.8625 135.927 35.915 134.81C35.9648 133.692 35.9779 133.335 35.9779 130.487C35.9779 127.638 35.9648 127.282 35.915 126.162C35.8625 125.047 35.6855 124.284 35.4272 123.618C35.1636 122.918 34.7506 122.284 34.2171 121.76C33.6934 121.227 33.0593 120.814 32.3592 120.551C31.6905 120.291 30.9275 120.114 29.8117 120.063C28.692 120.013 28.3367 120 25.4863 120H25.4889ZM24.5489 121.89H25.4903C28.2908 121.89 28.6225 121.899 29.7278 121.951C30.7505 121.996 31.3064 122.168 31.6761 122.311C32.1652 122.501 32.5152 122.729 32.8823 123.096C33.2495 123.463 33.4763 123.812 33.6664 124.302C33.8106 124.671 33.9811 125.226 34.0269 126.249C34.0781 127.354 34.0886 127.685 34.0886 130.484C34.0886 133.283 34.0781 133.616 34.0269 134.721C33.9811 135.743 33.8093 136.298 33.6664 136.667C33.4982 137.123 33.2298 137.534 32.881 137.872C32.5139 138.239 32.1652 138.466 31.6748 138.656C31.3077 138.8 30.7518 138.97 29.7278 139.018C28.6225 139.067 28.2908 139.079 25.4903 139.079C22.6897 139.079 22.3567 139.067 21.2514 139.018C20.2287 138.97 19.6741 138.8 19.3044 138.656C18.8488 138.488 18.4366 138.22 18.0982 137.872C17.7491 137.534 17.4803 137.122 17.3115 136.666C17.1686 136.298 16.9968 135.742 16.9509 134.719C16.9011 133.614 16.8906 133.283 16.8906 130.481C16.8906 127.682 16.9011 127.351 16.9509 126.246C16.9981 125.224 17.1686 124.668 17.3128 124.298C17.5029 123.809 17.7311 123.459 18.0982 123.092C18.4653 122.725 18.814 122.498 19.3044 122.308C19.6741 122.164 20.2287 121.994 21.2514 121.947C22.219 121.902 22.594 121.889 24.5489 121.888L24.5489 121.89ZM31.0887 123.631C30.3936 123.631 29.8301 124.194 29.8301 124.889C29.8301 125.584 30.3936 126.148 31.0887 126.148C31.7839 126.148 32.3474 125.584 32.3474 124.889C32.3474 124.194 31.7839 123.631 31.0887 123.631ZM25.4903 125.102C22.5153 125.055 20.0659 127.429 20.0195 130.403C19.9731 133.378 22.3472 135.827 25.3222 135.873C25.3782 135.874 25.4342 135.874 25.4903 135.873C28.4653 135.827 30.8394 133.378 30.7929 130.403C30.7475 127.494 28.3998 125.147 25.4903 125.102ZM25.4903 126.991C27.4215 126.99 28.9877 128.554 28.9885 130.485C28.9893 132.416 27.4244 133.982 25.4932 133.983H25.4903C23.5591 133.983 21.9935 132.417 21.9935 130.487C21.9935 128.556 23.559 126.991 25.4903 126.991Z" fill="white"/>
</g>
<defs>
<clipPath id="clip0_15_102">
<rect width="436" height="349" fill="white"/>
</clipPath>
</defs>
</svg>
