<?xml version="1.0" encoding="UTF-8" standalone="no"?>
<svg
   version="1.0"
   width="512.000000pt"
   height="512.000000pt"
   viewBox="0 0 512.000000 512.000000"
   preserveAspectRatio="xMidYMid meet"
   id="svg18"
   sodipodi:docname="profit.svg"
   inkscape:version="1.2.2 (b0a8486541, 2022-12-01)"
   xmlns:inkscape="http://www.inkscape.org/namespaces/inkscape"
   xmlns:sodipodi="http://sodipodi.sourceforge.net/DTD/sodipodi-0.dtd"
   xmlns="http://www.w3.org/2000/svg"
   xmlns:svg="http://www.w3.org/2000/svg">
  <defs
     id="defs22" />
  <sodipodi:namedview
     id="namedview20"
     pagecolor="#505050"
     bordercolor="#eeeeee"
     borderopacity="1"
     inkscape:showpageshadow="0"
     inkscape:pageopacity="0"
     inkscape:pagecheckerboard="0"
     inkscape:deskcolor="#505050"
     inkscape:document-units="pt"
     showgrid="false"
     inkscape:zoom="0.87597656"
     inkscape:cx="82.764771"
     inkscape:cy="341.33333"
     inkscape:window-width="1366"
     inkscape:window-height="750"
     inkscape:window-x="0"
     inkscape:window-y="18"
     inkscape:window-maximized="1"
     inkscape:current-layer="svg18" />
  <g
     transform="translate(0.000000,512.000000) scale(0.100000,-0.100000)"
     fill="#000000"
     stroke="none"
     id="g16"
     style="fill:#ffffff;fill-opacity:1">
    <path
       d="M1127 5098 c-16 -17 -28 -50 -42 -121 -12 -61 -23 -96 -30 -93 -6 2 -46 27 -89 55 -43 28 -90 51 -104 51 -18 0 -53 -28 -133 -107 -126 -124 -130 -136 -76 -218 18 -28 43 -66 55 -86 l22 -36 -103 -22 c-56 -12 -108 -28 -116 -36 -8 -8 -17 -34 -20 -57 l-6 -43 -53 -7 c-120 -18 -237 -110 -284 -226 l-23 -57 -3 -1189 c-2 -715 1 -1216 7 -1258 18 -128 86 -225 199 -280 l66 -33 187 -3 187 -4 12 -46 c43 -176 179 -326 348 -384 85 -29 260 -32 331 -5 24 10 46 15 49 12 3 -3 -34 -160 -83 -349 -98 -385 -99 -402 -44 -469 91 -111 281 -110 353 1 18 27 67 203 176 632 84 327 154 598 157 602 2 5 58 8 124 8 l119 0 0 -584 0 -584 28 -53 c22 -43 38 -59 82 -82 47 -25 63 -28 109 -23 69 6 126 45 158 105 l23 44 0 589 0 588 125 0 c69 0 125 -2 125 -5 0 -32 308 -1200 323 -1228 92 -166 397 -95 397 92 0 33 -236 992 -276 1123 -5 16 33 18 608 20 l613 3 62 29 c76 35 144 104 181 184 l27 57 3 861 3 861 -21 26 c-27 34 -80 37 -110 7 -20 -20 -20 -33 -20 -856 0 -598 -3 -848 -11 -875 -16 -52 -64 -108 -113 -130 -39 -18 -100 -19 -1418 -19 l-1377 0 -11 43 c-28 109 -79 196 -161 271 -64 60 -118 91 -209 122 -75 25 -224 25 -300 0 -180 -60 -320 -202 -366 -372 l-17 -65 -177 3 c-173 3 -177 4 -218 30 -22 15 -54 49 -69 75 l-28 48 0 1115 0 1115 170 3 170 2 13 -29 c7 -16 55 -70 107 -120 117 -114 125 -115 243 -35 46 30 85 54 86 52 2 -2 11 -45 21 -96 10 -53 26 -103 37 -117 19 -25 21 -25 177 -25 141 0 160 2 175 18 9 11 25 61 36 113 12 52 22 97 23 101 1 4 40 -17 87 -47 122 -78 123 -78 253 53 59 59 107 113 107 120 0 9 221 12 1037 12 l1038 0 -350 -350 -350 -350 -195 194 c-268 267 -261 267 -477 53 -126 -125 -143 -145 -143 -174 0 -43 30 -73 73 -73 28 0 48 16 157 125 l125 125 190 -189 c104 -104 200 -194 212 -200 28 -14 88 -14 116 0 12 6 262 250 555 543 569 568 557 553 513 607 -17 22 -29 24 -114 27 -79 3 -99 7 -113 23 -25 28 -22 78 6 101 22 18 41 19 286 16 237 -3 265 -5 281 -21 16 -16 18 -43 21 -260 4 -274 -1 -308 -49 -327 -27 -11 -34 -11 -57 7 -25 19 -27 27 -33 118 -5 86 -8 100 -28 117 -13 10 -37 18 -54 18 -28 0 -97 -65 -652 -620 l-620 -620 -190 190 c-203 204 -226 219 -302 206 -33 -7 -79 -48 -373 -342 -224 -223 -343 -334 -357 -334 -35 0 -73 38 -73 73 0 27 24 55 184 216 115 116 187 196 191 213 6 22 1 33 -24 59 -26 25 -37 30 -59 24 -37 -9 -398 -367 -423 -420 -45 -97 -7 -223 86 -280 62 -38 147 -41 210 -8 22 12 181 163 355 337 l315 316 195 -194 c125 -125 205 -197 223 -202 16 -3 47 -4 69 -1 39 5 73 38 609 573 l567 567 15 -35 c39 -93 151 -151 247 -128 68 16 123 59 151 117 24 47 24 53 24 338 0 264 -2 293 -19 325 -26 49 -55 79 -101 103 -38 21 -52 22 -335 22 -287 0 -296 -1 -337 -22 -23 -13 -55 -39 -70 -58 l-28 -35 -997 0 -998 0 0 36 c0 69 -17 81 -155 110 -44 9 -81 18 -83 19 -2 2 22 41 52 88 34 52 56 96 56 113 0 40 -203 244 -243 244 -15 0 -63 -23 -112 -55 -46 -30 -86 -55 -88 -55 -2 0 -12 37 -21 83 -22 103 -34 135 -57 147 -10 6 -83 10 -164 10 -138 0 -147 -1 -168 -22z m236 -145 c3 -10 13 -53 22 -96 15 -72 19 -80 56 -104 21 -14 58 -28 82 -30 38 -5 51 0 122 46 l80 51 43 -43 44 -44 -52 -79 c-47 -71 -51 -83 -47 -122 2 -23 16 -60 30 -81 24 -37 32 -41 104 -56 125 -27 114 -18 111 -88 l-3 -62 -85 -18 c-91 -19 -123 -40 -146 -94 -24 -57 -17 -92 36 -173 l49 -75 -43 -44 -44 -43 -79 51 c-87 56 -108 60 -168 32 -56 -26 -74 -50 -91 -123 -8 -34 -16 -73 -19 -86 -5 -21 -10 -23 -68 -20 l-62 3 -18 85 c-19 96 -46 130 -114 149 -58 16 -65 15 -148 -40 l-78 -51 -44 45 -45 44 51 78 c56 85 60 109 32 170 -27 59 -48 72 -141 92 l-85 18 -3 62 c-3 70 -13 61 93 83 86 18 102 29 130 83 14 28 25 62 25 75 0 14 -23 61 -51 105 l-51 79 43 44 44 44 75 -50 c86 -57 119 -62 188 -29 49 24 63 48 82 144 17 89 13 85 79 85 48 0 61 -3 64 -17z m-873 -762 c0 -54 28 -74 137 -96 48 -9 91 -19 95 -22 4 -2 1 -15 -8 -29 l-16 -24 -213 0 -212 0 7 38 c18 96 97 170 183 172 25 0 27 -3 27 -39z m3600 26 c0 -29 61 -104 102 -126 24 -13 45 -26 47 -28 2 -1 -4 -12 -14 -23 -18 -20 -30 -20 -1171 -20 l-1154 0 -16 25 c-9 14 -15 27 -13 29 2 2 47 11 99 21 110 21 140 43 140 100 l0 35 990 0 c817 0 990 -2 990 -13z m-2712 -2437 c115 -27 213 -104 264 -208 31 -62 33 -74 33 -167 0 -89 -3 -107 -29 -162 -35 -77 -113 -153 -193 -191 -50 -23 -71 -27 -153 -27 -83 0 -103 4 -153 27 -73 35 -160 117 -192 182 -48 99 -50 232 -5 333 23 52 101 137 155 168 80 47 187 65 273 45z m528 -467 c-2 -10 -68 -268 -146 -573 -79 -309 -149 -563 -157 -572 -21 -23 -65 -23 -94 1 l-23 18 111 434 c98 384 115 440 146 487 34 51 68 135 81 195 6 24 11 27 47 27 34 0 40 -3 35 -17z m652 -565 l-3 -583 -27 -9 c-22 -8 -32 -6 -48 9 -20 18 -20 28 -20 592 l0 573 50 0 50 0 -2 -582z m830 25 c78 -307 142 -564 142 -572 0 -49 -87 -70 -114 -28 -8 12 -78 272 -155 577 -78 305 -144 561 -146 568 -3 9 13 12 63 12 l67 0 143 -557z"
       id="path2"
       style="fill:#ffffff;fill-opacity:1" />
    <path
       d="M1247 4619 c-68 -11 -129 -43 -177 -95 -62 -67 -84 -124 -84 -214 0 -128 66 -233 184 -289 79 -37 183 -37 262 2 72 36 141 111 164 180 77 229 -111 453 -349 416z m145 -175 c117 -75 87 -254 -49 -294 -62 -19 -110 -6 -159 44 -57 56 -67 114 -33 183 50 98 149 126 241 67z"
       id="path4"
       style="fill:#ffffff;fill-opacity:1" />
    <path
       d="M1250 1560 c-28 -28 -32 -55 -28 -180 3 -103 5 -113 27 -131 30 -25 76 -24 101 1 18 18 20 33 20 154 0 133 0 135 -26 155 -34 26 -68 27 -94 1z"
       id="path6"
       style="fill:#ffffff;fill-opacity:1" />
    <path
       d="M721 3224 c-19 -24 -21 -40 -21 -185 0 -169 7 -200 47 -218 16 -7 150 -11 418 -11 l394 0 28 24 28 24 0 177 c0 174 0 177 -24 196 -22 18 -44 19 -436 19 l-414 0 -20 -26z m747 -191 l-3 -68 -307 -3 -308 -2 0 70 0 70 310 0 311 0 -3 -67z"
       id="path8"
       style="fill:#ffffff;fill-opacity:1" />
    <path
       d="M744 2668 c-22 -10 -44 -47 -44 -74 0 -8 11 -26 25 -39 l24 -25 291 0 c277 0 291 1 310 20 30 30 27 83 -6 109 -26 20 -38 21 -303 20 -168 0 -284 -4 -297 -11z"
       id="path10"
       style="fill:#ffffff;fill-opacity:1" />
    <path
       d="M3475 2285 c-14 -13 -25 -36 -25 -50 0 -14 11 -37 25 -50 l24 -25 449 0 449 0 21 23 c31 33 29 80 -4 106 -26 21 -37 21 -471 21 l-444 0 -24 -25z"
       id="path12"
       style="fill:#ffffff;fill-opacity:1" />
    <path
       d="M2895 1955 c-14 -13 -25 -36 -25 -50 0 -14 11 -37 25 -50 l24 -25 734 0 c728 0 735 0 761 21 36 28 36 80 0 108 -26 21 -33 21 -761 21 l-734 0 -24 -25z"
       id="path14"
       style="fill:#ffffff;fill-opacity:1" />
  </g>
</svg>
