<?xml version="1.0" encoding="UTF-8" standalone="no"?>
<svg
   version="1.0"
   width="512.000000pt"
   height="512.000000pt"
   viewBox="0 0 512.000000 512.000000"
   preserveAspectRatio="xMidYMid meet"
   id="svg26"
   sodipodi:docname="programming.svg"
   inkscape:version="1.2.2 (b0a8486541, 2022-12-01)"
   xmlns:inkscape="http://www.inkscape.org/namespaces/inkscape"
   xmlns:sodipodi="http://sodipodi.sourceforge.net/DTD/sodipodi-0.dtd"
   xmlns="http://www.w3.org/2000/svg"
   xmlns:svg="http://www.w3.org/2000/svg">
  <defs
     id="defs30" />
  <sodipodi:namedview
     id="namedview28"
     pagecolor="#505050"
     bordercolor="#eeeeee"
     borderopacity="1"
     inkscape:showpageshadow="0"
     inkscape:pageopacity="0"
     inkscape:pagecheckerboard="0"
     inkscape:deskcolor="#505050"
     inkscape:document-units="pt"
     showgrid="false"
     inkscape:zoom="0.87597656"
     inkscape:cx="82.764771"
     inkscape:cy="341.33333"
     inkscape:window-width="1366"
     inkscape:window-height="750"
     inkscape:window-x="0"
     inkscape:window-y="18"
     inkscape:window-maximized="1"
     inkscape:current-layer="svg26" />
  <g
     transform="translate(0.000000,512.000000) scale(0.100000,-0.100000)"
     fill="#000000"
     stroke="none"
     id="g24"
     style="fill:#ffffff;fill-opacity:1">
    <path
       d="M478 4845 c-59 -22 -125 -72 -158 -121 -64 -93 -61 22 -58 -1694 l3 -1565 27 -50 c34 -65 100 -128 163 -157 l50 -23 823 -3 822 -2 0 -255 0 -255 -293 0 c-284 0 -294 -1 -337 -23 -73 -37 -84 -67 -88 -240 -3 -123 -1 -152 12 -172 l16 -25 1100 0 1100 0 16 25 c13 20 15 49 12 172 -4 173 -15 203 -88 241 -43 21 -53 22 -337 22 l-293 0 0 255 0 255 823 2 822 3 50 23 c63 29 129 92 163 157 l27 50 0 1580 0 1580 -24 50 c-32 63 -93 124 -156 156 l-50 24 -2055 2 c-1723 1 -2061 -1 -2092 -12z m4147 -104 c51 -23 111 -89 124 -138 7 -26 11 -410 11 -1195 l0 -1158 -2200 0 -2200 0 0 1165 c0 1286 -4 1203 63 1274 18 18 50 42 72 52 39 18 113 19 2065 19 1938 0 2027 -1 2065 -19z m135 -2902 c0 -205 -4 -325 -11 -350 -16 -50 -61 -105 -112 -132 l-42 -22 -2035 0 -2035 0 -42 22 c-51 27 -96 82 -112 132 -7 25 -11 145 -11 350 l0 311 2200 0 2200 0 0 -311z m-1890 -864 l0 -255 -310 0 -310 0 0 255 0 255 310 0 310 0 0 -255z m698 -377 c8 -8 12 -50 12 -125 l0 -113 -1020 0 -1020 0 0 113 c0 75 4 117 12 125 17 17 1999 17 2016 0z"
       id="path2"
       style="fill:#ffffff;fill-opacity:1" />
    <path
       d="M647 4503 c-31 -8 -37 -48 -37 -234 0 -178 0 -180 25 -204 l24 -25 793 0 c619 0 798 3 818 13 l25 13 3 204 c3 199 2 206 -19 223 -20 16 -73 17 -818 16 -438 -1 -804 -3 -814 -6z m1553 -228 l0 -125 -740 0 -740 0 0 125 0 125 740 0 740 0 0 -125z"
       id="path4"
       style="fill:#ffffff;fill-opacity:1" />
    <path
       d="M3803 4388 c-19 -25 -783 -1666 -783 -1681 0 -22 44 -50 67 -43 23 7 6 -28 442 902 198 424 361 781 361 792 0 35 -66 57 -87 30z"
       id="path6"
       style="fill:#ffffff;fill-opacity:1" />
    <path
       d="M2883 4027 c-52 -39 -571 -517 -576 -529 -2 -7 -2 -21 1 -30 6 -25 580 -543 606 -546 33 -4 62 32 50 62 -5 13 -125 129 -266 257 -142 128 -258 236 -258 240 0 4 119 116 265 249 153 139 265 249 265 259 0 47 -47 68 -87 38z"
       id="path8"
       style="fill:#ffffff;fill-opacity:1" />
    <path
       d="M3956 4024 c-23 -23 -20 -40 17 -78 23 -25 481 -442 505 -461 2 -2 -119 -114 -268 -249 -163 -149 -270 -254 -270 -265 0 -23 31 -51 56 -51 23 0 600 520 609 550 3 11 3 26 -2 33 -4 8 -137 131 -296 275 -296 270 -315 283 -351 246z"
       id="path10"
       style="fill:#ffffff;fill-opacity:1" />
    <path
       d="M638 3778 c-24 -20 -28 -45 -10 -68 17 -20 19 -20 762 -18 l745 3 9 27 c8 22 6 32 -9 48 -18 20 -27 20 -750 20 -570 0 -735 -3 -747 -12z"
       id="path12"
       style="fill:#ffffff;fill-opacity:1" />
    <path
       d="M624 3405 c-15 -23 -15 -27 0 -50 l16 -25 563 0 c425 0 566 3 575 12 17 17 15 54 -4 72 -14 14 -80 16 -574 16 l-560 0 -16 -25z"
       id="path14"
       style="fill:#ffffff;fill-opacity:1" />
    <path
       d="M624 3045 c-15 -23 -15 -27 0 -50 l16 -25 740 0 c658 0 740 2 754 16 9 8 16 24 16 34 0 10 -7 26 -16 34 -14 14 -96 16 -754 16 l-740 0 -16 -25z"
       id="path16"
       style="fill:#ffffff;fill-opacity:1" />
    <path
       d="M626 2689 c-16 -23 -12 -47 12 -66 12 -10 141 -13 568 -13 489 0 554 2 568 16 19 18 21 55 4 72 -9 9 -150 12 -574 12 -562 0 -563 0 -578 -21z"
       id="path18"
       style="fill:#ffffff;fill-opacity:1" />
    <path
       d="M2480 1957 c-49 -16 -123 -93 -138 -143 -24 -82 -4 -172 51 -233 33 -36 115 -71 167 -71 52 0 134 35 167 71 85 93 82 230 -7 319 -65 65 -150 85 -240 57z m139 -105 c38 -20 71 -73 71 -112 0 -60 -67 -125 -130 -125 -63 0 -130 65 -130 125 0 62 68 130 130 130 14 0 41 -8 59 -18z"
       id="path20"
       style="fill:#ffffff;fill-opacity:1" />
    <path
       d="M4150 1070 c-106 -23 -192 -116 -205 -225 -4 -29 -5 -131 -3 -226 3 -170 4 -175 32 -227 16 -28 44 -64 63 -78 66 -50 87 -54 316 -54 213 0 214 0 268 27 60 31 112 92 129 151 5 20 10 127 10 237 0 188 -2 203 -24 250 -25 55 -80 109 -135 133 -43 18 -377 27 -451 12z m150 -200 l0 -100 -131 0 -131 0 7 48 c8 60 32 101 75 129 27 19 47 23 106 23 l74 0 0 -100z m280 81 c42 -22 80 -90 80 -143 l0 -38 -130 0 -130 0 0 100 0 100 73 0 c51 0 82 -5 107 -19z m78 -375 c4 -110 -17 -160 -78 -195 -38 -21 -48 -22 -239 -19 -185 3 -202 5 -228 24 -47 36 -65 77 -70 169 -3 46 -3 91 0 99 6 15 40 16 309 14 l303 -3 3 -89z"
       id="path22"
       style="fill:#ffffff;fill-opacity:1" />
  </g>
</svg>
