<?xml version="1.0" encoding="UTF-8" standalone="no"?>
<svg
   version="1.0"
   width="512.000000pt"
   height="512.000000pt"
   viewBox="0 0 512.000000 512.000000"
   preserveAspectRatio="xMidYMid meet"
   id="svg8"
   sodipodi:docname="online.svg"
   inkscape:version="1.2.2 (b0a8486541, 2022-12-01)"
   xmlns:inkscape="http://www.inkscape.org/namespaces/inkscape"
   xmlns:sodipodi="http://sodipodi.sourceforge.net/DTD/sodipodi-0.dtd"
   xmlns="http://www.w3.org/2000/svg"
   xmlns:svg="http://www.w3.org/2000/svg">
  <defs
     id="defs12" />
  <sodipodi:namedview
     id="namedview10"
     pagecolor="#505050"
     bordercolor="#eeeeee"
     borderopacity="1"
     inkscape:showpageshadow="0"
     inkscape:pageopacity="0"
     inkscape:pagecheckerboard="0"
     inkscape:deskcolor="#505050"
     inkscape:document-units="pt"
     showgrid="false"
     inkscape:zoom="0.87597656"
     inkscape:cx="356.7447"
     inkscape:cy="341.33333"
     inkscape:window-width="1366"
     inkscape:window-height="750"
     inkscape:window-x="0"
     inkscape:window-y="18"
     inkscape:window-maximized="1"
     inkscape:current-layer="svg8" />
  <g
     transform="translate(0.000000,512.000000) scale(0.100000,-0.100000)"
     fill="#000000"
     stroke="none"
     id="g6"
     style="fill:#ffffff;fill-opacity:1">
    <path
       d="M1910 5069 c-461 -38 -929 -253 -1269 -583 -832 -808 -855 -2129 -51 -2960 180 -186 351 -312 580 -425 217 -107 536 -203 598 -180 34 13 51 38 52 75 0 56 -24 72 -155 104 -293 70 -546 193 -779 380 l-80 63 24 16 c34 23 192 91 212 91 11 0 26 -17 38 -41 36 -70 88 -146 105 -153 47 -18 91 -4 111 36 20 38 14 59 -37 143 -22 37 -39 68 -37 70 7 6 270 55 353 65 140 17 165 33 165 100 0 40 -39 80 -77 80 -49 0 -290 -39 -403 -65 -60 -14 -111 -25 -113 -25 -8 0 -65 156 -102 275 -66 217 -115 511 -115 687 l0 78 168 0 c185 0 205 6 217 59 7 33 -15 85 -40 95 -9 3 -90 6 -179 6 -90 0 -165 2 -167 4 -2 3 -1 64 3 136 13 230 64 489 141 715 36 103 67 185 72 185 1 0 51 -11 111 -24 204 -46 529 -86 695 -86 l58 0 3 -416 3 -416 28 -24 c37 -31 81 -31 112 1 l25 24 0 414 0 414 138 7 c216 10 456 42 647 87 44 10 83 15 87 11 4 -4 21 -45 38 -92 104 -281 162 -552 177 -835 6 -124 8 -131 34 -157 30 -30 54 -34 93 -17 45 21 51 55 38 228 -21 281 -76 544 -162 781 -23 63 -43 123 -43 134 -2 14 18 27 88 56 50 20 116 51 147 69 l57 32 61 -73 c258 -308 412 -691 446 -1107 5 -70 10 -88 30 -108 40 -39 113 -23 133 31 12 31 -6 223 -35 364 -128 636 -554 1185 -1140 1468 -345 167 -716 236 -1104 203z m100 -541 l0 -371 -142 6 c-79 4 -197 13 -263 22 -115 15 -376 63 -384 70 -1 2 20 43 49 90 124 205 291 374 464 469 61 34 211 86 249 86 l27 0 0 -372z m272 357 c235 -61 480 -271 650 -557 22 -38 39 -71 36 -73 -8 -8 -255 -54 -373 -70 -66 -8 -186 -18 -267 -22 l-148 -6 0 371 c0 426 -12 386 102 357z m-935 -172 c-79 -82 -169 -202 -236 -315 l-58 -97 -96 39 c-53 21 -108 47 -123 56 l-26 18 43 38 c76 65 192 145 293 203 100 56 248 126 255 119 2 -2 -21 -30 -52 -61z m1617 -10 c140 -70 271 -157 395 -262 l35 -29 -45 -22 c-24 -13 -80 -38 -124 -56 l-79 -32 -61 102 c-59 99 -145 215 -241 324 l-47 52 39 -16 c22 -9 79 -37 128 -61z m-2069 -519 c39 -15 74 -30 78 -34 4 -4 -8 -49 -28 -100 -102 -268 -176 -630 -187 -920 l-3 -65 -292 -3 -293 -2 0 24 c0 113 56 386 110 539 78 222 221 466 365 626 l36 40 72 -39 c40 -21 104 -51 142 -66z m-133 -1409 c17 -271 76 -565 163 -810 25 -71 47 -136 48 -143 1 -7 -37 -29 -91 -52 -51 -22 -117 -53 -146 -70 l-54 -30 -36 40 c-164 182 -314 452 -390 704 -49 160 -98 449 -80 477 3 6 119 8 292 7 l287 -3 7 -120z"
       id="path2"
       style="fill:#ffffff;fill-opacity:1" />
    <path
       d="M1205 3375 c-30 -29 -33 -83 -7 -115 15 -18 43 -25 202 -49 217 -33 252 -47 288 -116 10 -20 392 -2105 392 -2135 -1 -8 -27 -31 -59 -51 -98 -62 -151 -159 -151 -278 0 -80 19 -140 64 -201 61 -84 147 -128 272 -137 l70 -6 22 -46 c33 -73 86 -127 159 -163 123 -60 265 -40 367 53 35 32 62 68 77 104 l24 55 516 0 516 0 17 -44 c26 -67 87 -131 164 -168 57 -28 76 -33 142 -32 61 0 87 5 138 29 73 33 140 101 168 170 l19 45 95 0 c106 0 138 11 158 54 17 33 9 69 -20 96 -19 17 -35 20 -129 20 l-107 0 -6 28 c-13 50 -75 131 -129 166 -172 114 -408 47 -488 -139 l-24 -55 -512 0 -512 0 -26 58 c-34 74 -108 144 -183 172 -79 30 -195 25 -267 -12 -64 -33 -137 -110 -160 -171 l-18 -47 -51 0 c-65 0 -133 33 -163 79 -46 69 -23 181 46 227 41 26 -70 7 1556 269 567 91 1044 170 1061 176 44 14 111 74 135 122 29 57 233 1205 224 1263 -9 64 -62 143 -119 179 l-49 30 -1500 5 -1500 5 -29 155 c-32 174 -53 225 -116 288 -67 67 -122 87 -326 116 -98 14 -187 26 -198 26 -10 0 -30 -11 -43 -25z m1405 -747 c0 -7 9 -110 19 -228 11 -118 18 -216 17 -217 -5 -5 -547 -34 -578 -31 l-32 3 -43 235 c-23 129 -43 238 -43 243 0 4 149 7 330 7 257 0 330 -3 330 -12z m750 -198 c0 -115 -3 -210 -7 -210 -4 0 -124 -7 -266 -16 -143 -8 -263 -12 -267 -7 -4 4 -13 78 -19 163 -7 85 -15 182 -18 217 l-6 63 292 0 291 0 0 -210z m726 183 c-3 -16 -10 -100 -17 -188 -6 -88 -13 -161 -14 -163 -2 -2 -463 -31 -507 -32 -17 0 -18 16 -18 205 l0 205 281 0 281 0 -6 -27z m809 2 c14 -13 25 -32 25 -42 0 -31 -42 -258 -49 -264 -8 -9 -631 -43 -638 -35 -6 6 15 329 22 354 3 9 74 12 310 12 l306 0 24 -25z m-55 -503 c0 -20 -38 -234 -43 -238 -1 -2 -139 -18 -306 -37 l-303 -33 6 85 c4 47 9 114 13 149 l6 62 46 1 c25 0 134 7 241 13 300 20 340 20 340 -2z m-805 -114 c-4 -51 -10 -120 -14 -153 l-6 -60 -190 -21 c-104 -12 -214 -25 -242 -28 l-53 -6 0 165 c0 150 2 165 18 166 9 0 109 6 222 13 113 7 220 14 238 15 l34 1 -7 -92z m-675 -118 c0 -93 -3 -170 -7 -170 -5 0 -115 -12 -246 -26 -131 -15 -239 -25 -242 -23 -6 7 -35 352 -30 357 4 5 361 27 473 31 l52 1 0 -170z m-696 108 c3 -13 10 -94 17 -181 9 -116 9 -161 1 -166 -14 -8 -531 -65 -537 -59 -7 6 -77 390 -73 394 4 4 436 31 525 33 57 1 63 -1 67 -21z m2101 -310 c-2 -13 -14 -76 -25 -142 -22 -121 -33 -151 -60 -162 -8 -3 -130 -25 -270 -48 l-255 -42 -3 41 c-1 22 3 101 10 175 l13 135 280 31 c154 17 288 32 298 33 13 1 16 -5 12 -21z m-766 -105 c-1 -64 -24 -312 -29 -316 -3 -2 -103 -20 -222 -39 l-218 -34 0 188 c0 103 1 188 3 189 19 4 402 47 430 48 37 1 37 1 36 -36z m-641 -225 l-3 -193 -220 -35 -220 -36 -6 41 c-11 67 -32 355 -27 360 5 5 392 52 446 54 l32 1 -2 -192z m-648 115 c0 -5 7 -95 16 -201 10 -114 13 -196 8 -201 -11 -10 -474 -84 -481 -77 -7 6 -82 419 -78 424 3 3 470 59 513 61 12 0 22 -2 22 -6z m-30 -938 c118 -60 118 -230 0 -292 -74 -39 -151 -25 -203 36 -119 141 38 339 203 256z m1682 -1 c58 -29 96 -112 83 -180 -9 -51 -77 -120 -128 -129 -122 -23 -229 86 -198 202 30 110 140 158 243 107z"
       id="path4"
       style="fill:#ffffff;fill-opacity:1" />
  </g>
</svg>
